<svg xmlns="http://www.w3.org/2000/svg" viewBox="0 0 134.79 110.35"><defs><style>.cls-1{fill:#ffc500;}.cls-2{fill:#414042;}</style></defs><title>Asset 48</title><g id="Layer_2" data-name="Layer 2"><g id="Layer_26" data-name="Layer 26"><path class="cls-1" d="M134.79,52.85A39.36,39.36,0,1,1,95.43,13.49,39.36,39.36,0,0,1,134.79,52.85Z"/><path class="cls-2" d="M55.18,0a55.18,55.18,0,1,0,55.17,55.18A55.17,55.17,0,0,0,55.18,0ZM34.57,70.67l-.37-.85,9.18-3.89.36.86c1.46,3.46,6.5,6.07,11.73,6.07,2.35,0,10-.43,10-6,0-2.9-3.28-4.63-10.31-5.46-7.9-.89-18.72-2.1-18.72-14,0-7.3,5.47-12.41,14.67-13.77V28H61v5.64c4.27.75,9.91,2.61,13.05,9l.42.85L66,47.47l-.43-.71c-1.48-2.44-5.83-4.36-9.89-4.36-2.75,0-9.13.49-9.13,5,0,3.26,4.11,4,9.49,4.65C64.49,53.09,76,54.51,76,66.89,76,76,68.61,80.8,61,81.65v6.4H51.13V82C43.15,81,37.29,77,34.57,70.67Z"/></g></g></svg>