<svg xmlns="http://www.w3.org/2000/svg" viewBox="0 0 133 100.04"><defs><style>.cls-1{fill:#05d1b8;}.cls-2{fill:#414042;}</style></defs><title>Asset 49</title><g id="Layer_2" data-name="Layer 2"><g id="Layer_27" data-name="Layer 27"><path class="cls-1" d="M60,8.06C67.52-2,85.64-1.81,100.21,4.13c16.26,6.62,34.83,22.2,32.61,34.66-1.39,7.79-6.37,6.62-45.74,6.36C64.18,43,51.71,19,60,8.06Z"/><path class="cls-2" d="M35.45,75.69A2.3,2.3,0,0,1,37.73,78v7.61a2.29,2.29,0,0,1-2.28,2.28H1.29A1.29,1.29,0,0,0,0,89.15v1.76A9.13,9.13,0,0,0,9.13,100h91.29a9.12,9.12,0,0,0,9.12-9.13V54.28a2.43,2.43,0,0,0-2.43-2.44H2.44A2.44,2.44,0,0,0,0,54.28V74.37a1.29,1.29,0,0,0,1.29,1.29ZM109.54,31v7.38a1.75,1.75,0,0,1-1.74,1.75H1.75A1.75,1.75,0,0,1,0,38.37V31a9.13,9.13,0,0,1,9.13-9.13h91.29A9.12,9.12,0,0,1,109.54,31Z"/></g></g></svg>