<svg xmlns="http://www.w3.org/2000/svg" xmlns:xlink="http://www.w3.org/1999/xlink" viewBox="0 0 106.98 27.76"><defs><style>.cls-1{fill:#58595b;}.cls-2{fill:url(#New_Gradient_Swatch_copy_3);}</style><linearGradient id="New_Gradient_Swatch_copy_3" y1="13.88" x2="33.51" y2="13.88" gradientUnits="userSpaceOnUse"><stop offset="0.11" stop-color="#00b6ff"/><stop offset="0.88" stop-color="#05d1b8"/></linearGradient></defs><title>Asset 84</title><g id="Layer_2" data-name="Layer 2"><g id="Register"><path class="cls-1" d="M45.64,10.09v7.72H43.45V10.09h-3V8h8.23v2.09Z"/><path class="cls-1" d="M53.65,14.16h-.78v3.65H50.69V8h3.89a3,3,0,0,1,3.18,3.07,2.82,2.82,0,0,1-1.94,2.77l2,4h-2.4Zm.51-1.89c.9,0,1.38-.49,1.38-1.18S55.06,9.9,54.16,9.9H52.87v2.37Z"/><path class="cls-1" d="M60,14.27V8h2.18v6.09a1.71,1.71,0,1,0,3.41,0V8h2.18v6.27a3.89,3.89,0,0,1-7.77,0Z"/><path class="cls-1" d="M75.29,11a1.48,1.48,0,0,0-1.63-1.23,1.2,1.2,0,0,0-1.34,1c0,.47.29.82,1,.94L74.6,12a3.05,3.05,0,0,1,2.83,2.95c0,1.53-1.28,3.09-3.62,3.09-2.71,0-3.87-1.75-4-3.14l2-.48a1.84,1.84,0,0,0,2,1.69c.86,0,1.38-.42,1.38-1s-.4-.85-1-1l-1.34-.25A2.94,2.94,0,0,1,70.16,11a3.31,3.31,0,0,1,3.51-3.16c2.45,0,3.38,1.47,3.58,2.62Z"/><path class="cls-1" d="M84,10.09v7.72H81.84V10.09h-3V8h8.23v2.09Z"/><path class="cls-1" d="M94.94,15.82H91.15l-.71,2H88.15L91.84,8h2.53L98,17.81H95.64Zm-3.07-2h2.38l-1.18-3.38Z"/><path class="cls-1" d="M102.11,14.28v3.53H99.92V8h3.7a3.15,3.15,0,1,1,0,6.28Zm1.28-1.88a1.26,1.26,0,1,0,0-2.5h-1.27v2.5Z"/><path class="cls-2" d="M22,13.75a2.28,2.28,0,1,1-2.28-2.27A2.27,2.27,0,0,1,22,13.75ZM7.51,1.45,3.89,5.06,1.66,7.3l-.21.21a4.93,4.93,0,0,0,0,7L7.2,20.25l6.07,6.06a5,5,0,0,0,1,.78l.15.09.07,0,.35.17a4.23,4.23,0,0,0,.57.19l.21.06.14,0,.08,0,.17,0,.17,0a5.52,5.52,0,0,0,1.22,0l.11,0,.18,0,.23-.05.12,0a4.6,4.6,0,0,0,.68-.24l.21-.1.22-.11.31-.19.11-.07.29-.23a.39.39,0,0,0,.1-.08l.19-.17.09-.09,6.06-6.06,5.76-5.76a4.93,4.93,0,0,0,0-7L26,1.45a4.57,4.57,0,0,0-1.48-1,4.93,4.93,0,0,0-5.09.65L16.77,3.72h0L14.55,5.93h0l-3.61,3.6,0,0a1.83,1.83,0,0,1-2.55,0l-1-1L5.09,10.73,6.16,11.8a4.95,4.95,0,0,0,6.61.34l4-4L19,6l1-1,1.22-1.2a1.81,1.81,0,0,1,2.58,0l6,6a1.84,1.84,0,0,1,0,2.59l-2.48,2.46L21.13,21,18,24.07a1.84,1.84,0,0,1-2.59,0L6.18,14.75,3.72,12.28a1.82,1.82,0,0,1,0-2.59l.17-.17L5.83,7.58l.29-.28h0l3.61-3.6a1.82,1.82,0,0,1,2.59,0l1,1,2.21-2.21L14.49,1.45A4.93,4.93,0,0,0,7.51,1.45Z"/></g></g></svg>