<?xml version="1.0" encoding="utf-8"?>
<!-- Generator: Adobe Illustrator 17.0.0, SVG Export Plug-In . SVG Version: 6.00 Build 0)  -->
<!DOCTYPE svg PUBLIC "-//W3C//DTD SVG 1.1//EN" "http://www.w3.org/Graphics/SVG/1.1/DTD/svg11.dtd">
<svg version="1.1" id="Layer_1" xmlns="http://www.w3.org/2000/svg" xmlns:xlink="http://www.w3.org/1999/xlink" x="0px" y="0px"
	 width="91.5px" height="92px" viewBox="0 0 91.5 92" enable-background="new 0 0 91.5 92" xml:space="preserve">
<g>
	<path fill="#D6E9E3" d="M89.5,44.569C89.5,68.64,69.987,90,45.916,90S2.332,70.487,2.332,46.416S21.845,2.832,45.916,2.832
		S89.5,20.498,89.5,44.569z"/>
	<path fill="#44BEAF" d="M69.123,61.7h-44.87c-2.427,0-4.394-1.967-4.394-4.394V32.067c0-2.427,1.967-4.394,4.394-4.394h44.87
		c2.427,0,4.394,1.967,4.394,4.394v25.239C73.517,59.733,71.55,61.7,69.123,61.7z"/>
	<rect x="43.392" y="61.292" fill="#44BEAF" width="6.592" height="8"/>
	<path fill="#FFFFFF" d="M53.528,51.714l-1.616,1.619c-0.413,0.414-1.082,0.417-1.499,0.007l-5.955-5.854l3.104-3.11
		c0.006-0.006,0.016-0.006,0.023,0l5.936,5.835C53.939,50.623,53.942,51.299,53.528,51.714z"/>
	<path fill="#44BEAF" d="M60.283,72.413H33.201c-0.866,0-1.575-0.709-1.575-1.575l0,0c0-0.866,0.709-1.575,1.575-1.575h27.082
		c0.866,0,1.575,0.709,1.575,1.575l0,0C61.857,71.704,61.149,72.413,60.283,72.413z"/>
	<path fill="#FFFFFF" d="M41.244,52.693l11.44-11.46c0.311-0.312,0.154-0.845-0.279-0.947l-15.091-3.542
		c-0.411-0.096-0.777,0.268-0.678,0.676l3.651,15.002C40.392,52.853,40.932,53.006,41.244,52.693z"/>
</g>
</svg>
