<svg xmlns="http://www.w3.org/2000/svg" viewBox="0 0 146.58 118.23"><defs><style>.cls-1{fill:#f95da0;}.cls-2{fill:#414042;}</style></defs><title>Asset 47</title><g id="Layer_2" data-name="Layer 2"><g id="Layer_25" data-name="Layer 25"><path class="cls-1" d="M90.67,3.16A23.25,23.25,0,0,0,83.06.3c-4.85-.83-9.8.25-14.64,1.1A154.78,154.78,0,0,1,37.05,3.67c-6.89-.21-13.89-.87-20.63.64S3.06,10,.78,16.49A15.22,15.22,0,0,0,5.51,33c4.14,3.31,9.65,4.16,14.71,5.73a33.3,33.3,0,0,1,12.54,6.79c5.57,5,8.57,12.25,12.84,18.44,4,5.79,9.3,10.85,15.79,13.57a25.45,25.45,0,0,0,20.4-.55c4.62-2.19,28.42-17.6,24-49.57C104.51,17.45,99.56,8.26,90.67,3.16Z"/><path class="cls-2" d="M97.33,19.73A49.25,49.25,0,1,0,146.58,69,49.25,49.25,0,0,0,97.33,19.73Zm0,19.07A17.48,17.48,0,1,1,79.86,56.27,17.48,17.48,0,0,1,97.33,38.8Zm0,68.31A38.06,38.06,0,0,1,68.24,93.57,22.14,22.14,0,0,1,87.8,81.69a4.83,4.83,0,0,1,1.41.22,24.78,24.78,0,0,0,16.25,0,4.78,4.78,0,0,1,1.41-.22,22.16,22.16,0,0,1,19.56,11.88A38.07,38.07,0,0,1,97.33,107.11Z"/></g></g></svg>